<?xml version="1.0" standalone="no"?><!DOCTYPE svg PUBLIC "-//W3C//DTD SVG 1.1//EN" "http://www.w3.org/Graphics/SVG/1.1/DTD/svg11.dtd"><svg t="1588708251998" class="icon" viewBox="0 0 1024 1024" version="1.1" xmlns="http://www.w3.org/2000/svg" p-id="1064" xmlns:xlink="http://www.w3.org/1999/xlink" width="200" height="200"><defs><style type="text/css"></style></defs><path d="M1024 429.248C1024 228.352 965.184 65.28 892.544 64h0.896-82.944S615.68 210.368 335.296 267.776c-8.576 45.312-14.016 99.264-14.016 161.472s5.44 116.224 14.016 161.472c280.448 57.408 475.2 203.776 475.2 203.776h82.944l-0.896-0.064C965.248 793.152 1024 630.144 1024 429.184z m-159.168 310.016c-9.408 0-19.52-9.728-24.768-15.552-12.608-14.08-24.768-35.968-35.2-63.296-23.232-61.248-36.096-143.296-36.096-231.104s12.8-169.92 36.096-231.104c10.368-27.392 22.592-49.28 35.2-63.36 5.184-5.824 15.36-15.552 24.768-15.552s19.52 9.728 24.768 15.552c12.608 14.08 24.768 35.968 35.2 63.36 23.232 61.248 36.096 143.296 36.096 231.104s-12.8 169.92-36.096 231.104c-10.368 27.392-22.592 49.28-35.2 63.296-5.184 5.824-15.36 15.552-24.768 15.552zM251.84 429.248c0-51.968 3.84-102.4 11.072-149.12-47.36 6.528-88.96 10.304-140.352 10.304H55.488L0 385.088v88.192l55.488 94.656h67.072c51.392 0 92.992 3.776 140.352 10.304a980.864 980.864 0 0 1-11.072-149.12z m116.288 212.928l-128-24.512 81.856 321.536c4.224 16.64 20.736 25.024 36.672 18.624l118.528-47.424a27.328 27.328 0 0 0 14.208-39.104l-123.264-229.184z m496.704-93.44c-3.648 0-7.552-3.776-9.536-6.016a81.152 81.152 0 0 1-13.568-24.384c-8.96-23.616-13.888-55.232-13.888-89.088s4.928-65.472 13.888-89.088c4.032-10.56 8.704-19.008 13.568-24.384 1.984-2.24 5.888-6.016 9.536-6.016s7.552 3.776 9.536 6.016c4.864 5.44 9.536 13.888 13.568 24.384 8.96 23.616 13.888 55.232 13.888 89.088s-4.928 65.472-13.888 89.088a79.552 79.552 0 0 1-13.568 24.384c-1.984 2.24-5.888 6.016-9.536 6.016z" fill="" p-id="1065"></path></svg>